<?xml version="1.0" standalone="no"?>
<!DOCTYPE svg PUBLIC "-//W3C//DTD SVG 1.1//EN" "http://www.w3.org/Graphics/SVG/1.1/DTD/svg11.dtd" >
<svg xmlns="http://www.w3.org/2000/svg">
<metadata></metadata>
<defs>
<font id="exo_2.0regular" horiz-adv-x="1167" >
<font-face units-per-em="2048" ascent="1638" descent="-410" />
<missing-glyph horiz-adv-x="456" />
<glyph horiz-adv-x="0" />
<glyph horiz-adv-x="682" />
<glyph unicode=" "  horiz-adv-x="456" />
<glyph unicode="&#x09;" horiz-adv-x="456" />
<glyph unicode="&#xa0;" horiz-adv-x="456" />
<glyph unicode="!" horiz-adv-x="559" d="M193 797v626h174v-626l-17 -365h-139zM195 66v110q0 37 14 51.5t49 14.5h45q36 0 51 -15t15 -51v-110q0 -36 -15 -51t-51 -15h-45q-35 0 -49 14.5t-14 51.5z" />
<glyph unicode="&#x22;" horiz-adv-x="722" d="M143 1413h144l-13 -440h-120zM438 1413h142l-11 -440h-118z" />
<glyph unicode="#" horiz-adv-x="1402" d="M90 436l23 113h233l66 369h-236l23 112h231l68 383h139l-68 -383h375l68 383h139l-68 -383h228l-23 -112h-223l-66 -369h226l-23 -113h-221l-76 -436h-139l76 436h-375l-76 -436h-139l76 436h-238zM485 549h375l66 369h-375z" />
<glyph unicode="$" horiz-adv-x="1155" d="M117 1065q0 82 11.5 142t38.5 101.5t61 67t90 39.5t114 18.5t143 4.5h25l14 198h93l-15 -202q173 -7 303 -37l-12 -131q-166 7 -303 10l-35 -488l119 -30q158 -39 222.5 -133.5t64.5 -264.5q0 -82 -11.5 -142t-38.5 -102.5t-63 -70t-92.5 -43t-119.5 -21.5t-151 -6h-4 l-18 -235h-94l18 237q-186 8 -340 37l13 138q75 -2 186.5 -5.5t155.5 -3.5l36 496l-131 33q-150 37 -215 132t-65 261zM299 1061q0 -112 40 -160t140 -72l74 -18l35 465h-4q-46 0 -72 -0.5t-58.5 -3.5t-50 -9t-38.5 -16.5t-30.5 -26t-19 -38t-13 -52.5t-3.5 -69zM584 143 q86 0 136 8t85 32.5t48 67t13 114.5q0 61 -9.5 101t-33 65.5t-54 39.5t-81.5 27l-67 16z" />
<glyph unicode="%" horiz-adv-x="1830" d="M96 1020q0 228 73.5 324t254.5 96q183 0 256.5 -96t73.5 -324q0 -227 -74 -323.5t-256 -96.5q-181 0 -254.5 96.5t-73.5 323.5zM229 1020q0 -173 42.5 -241t152.5 -68q111 0 152.5 67.5t41.5 241.5q0 173 -41.5 241t-152.5 68q-110 0 -152.5 -69t-42.5 -240zM393 0 l916 1413h123l-916 -1413h-123zM1077 401q0 226 73.5 322t254.5 96t254.5 -96t73.5 -322q0 -228 -73.5 -323.5t-254.5 -95.5t-254.5 95.5t-73.5 323.5zM1210 401q-2 -175 39.5 -243t153.5 -68t154 68t42 243q0 173 -42 240.5t-154 67.5t-153.5 -67.5t-39.5 -240.5z" />
<glyph unicode="&#x26;" horiz-adv-x="1581" d="M137 358q0 170 64 264t213 107v8q-126 12 -181 93t-55 237q0 70 10.5 123.5t29.5 92.5t53 66t73 44t99.5 26t121.5 12t148 3q182 0 325 -21l-20 -133q-83 6 -311 6q-69 0 -116 -3.5t-89 -13t-66.5 -26t-43 -44.5t-25.5 -66t-7 -91q0 -142 59 -191.5t216 -49.5h385l16 262 h146v-262h256v-137h-256v-396q0 -72 30 -102.5t101 -30.5h151l21 -127q-91 -26 -217 -26q-104 0 -167.5 45.5t-78.5 130.5q-90 -97 -199 -137.5t-272 -40.5q-226 0 -320 83.5t-94 294.5zM326 387q0 -145 57 -198.5t209 -53.5q139 1 242.5 40.5t183.5 121.5v367h-391 q-169 0 -235 -59t-66 -218z" />
<glyph unicode="'" horiz-adv-x="428" d="M143 1413h144l-13 -440h-120z" />
<glyph unicode="(" horiz-adv-x="735" d="M111 639q0 398 130 635.5t408 343.5l23 -84q-203 -98 -297 -318.5t-94 -574.5q0 -348 94.5 -569.5t296.5 -325.5l-23 -84q-278 107 -408 344.5t-130 632.5z" />
<glyph unicode=")" horiz-adv-x="735" d="M66 -254q201 104 295 325.5t94 569.5q0 354 -94 574.5t-295 318.5l20 84q279 -106 410 -343.5t131 -635.5q0 -395 -131 -632.5t-410 -344.5z" />
<glyph unicode="*" horiz-adv-x="921" d="M111 1130l34 101l242 -94v-45l-22 -29zM217 823l205 262l-14 330h106l-16 -330l204 -264l-84 -61l-157 252l-158 -250zM532 1092v45l246 94l35 -103l-256 -65z" />
<glyph unicode="+" horiz-adv-x="1128" d="M115 547v131h381v360h135v-360h381v-131h-383v-363h-133v363h-381z" />
<glyph unicode="," horiz-adv-x="466" d="M141 57v119q1 36 17.5 51t50.5 15h51q36 0 50 -14.5t14 -51.5v-131q-3 -174 -72 -315l-82 24q20 120 20 246q-23 0 -36 15.5t-13 41.5z" />
<glyph unicode="-" horiz-adv-x="919" d="M147 451v133h625v-133h-625z" />
<glyph unicode="." horiz-adv-x="468" d="M139 66v110q0 36 15 51t51 15h57q37 0 51.5 -14.5t14.5 -51.5v-110q0 -37 -14.5 -51.5t-51.5 -14.5h-57q-36 0 -51 15t-15 51z" />
<glyph unicode="/" horiz-adv-x="1058" d="M55 -135l805 1548h144l-805 -1548h-144z" />
<glyph unicode="0" horiz-adv-x="1234" d="M131 707q0 393 108.5 563t376.5 170q270 0 379 -170t109 -563q0 -394 -109 -564t-379 -170q-136 0 -228.5 41.5t-149.5 133t-82 226.5t-25 333zM307 707q0 -318 67 -447t242 -129t243.5 129.5t68.5 446.5t-68.5 446t-243.5 129t-242 -128.5t-67 -446.5z" />
<glyph unicode="1" horiz-adv-x="815" d="M45 1268l361 145h180v-1413h-180v1120q0 72 10 123l-346 -108z" />
<glyph unicode="2" horiz-adv-x="1150" d="M113 0v113q0 47 26 77l410 463q138 150 200 261t58 210q-1 40 -14 68.5t-33.5 45t-55.5 25.5t-71 12t-90 3q-206 0 -406 -33l-12 139q232 54 430 54q87 0 149.5 -7t119 -26.5t91 -53.5t54.5 -88t20 -130q0 -133 -55 -245.5t-197 -269.5l-405 -452q96 8 229 8h479v-174 h-927z" />
<glyph unicode="3" horiz-adv-x="1138" d="M106 10l13 146q243 -21 391 -21q172 0 243.5 61.5t71.5 215.5q0 62 -11.5 106t-41 81t-86 55t-141.5 18h-262v141h262q65 1 112 16t73 37.5t40.5 58.5t18.5 68.5t4 77.5q-2 68 -15.5 108t-50 63t-86.5 30.5t-137 7.5q-171 0 -359 -16l-14 139q206 37 397 37 q237 0 337 -72t100 -256q0 -97 -17 -167t-64.5 -121.5t-125.5 -67.5v-8q68 -11 115.5 -40.5t75.5 -76t40.5 -104.5t14.5 -134q3 -219 -100 -319.5t-349 -100.5q-184 0 -449 37z" />
<glyph unicode="4" horiz-adv-x="1259" d="M96 565l402 848h178l-395 -835q-17 -41 -1.5 -62.5t52.5 -21.5h485v415l31 234h139v-649h182v-129l-182 -19v-346h-170v346h-586q-87 0 -129 70t-6 149z" />
<glyph unicode="5" horiz-adv-x="1097" d="M106 27l21 145q204 -37 358 -37q99 0 162.5 18t97.5 57.5t47 89t15 124.5q1 56 -8 97.5t-22 71.5t-47.5 50.5t-62.5 33t-91.5 21.5t-110.5 13t-141 10l-95 6q-31 3 -49.5 25.5t-17.5 54.5l33 606h747l-8 -153h-594l-21 -386l152 -12q143 -10 237.5 -36.5t157.5 -78 t90.5 -130t26.5 -193.5q0 -75 -10 -135t-40 -120.5t-79 -101.5t-132.5 -66.5t-195.5 -25.5q-194 0 -420 52z" />
<glyph unicode="6" horiz-adv-x="1171" d="M135 672q0 124 8 223.5t25.5 176.5t41.5 134t60 98t76 67t95 41t112 20.5t131 5.5q170 0 285 -31l-17 -131q-90 8 -268 8q-83 0 -137.5 -11.5t-100.5 -42t-71.5 -88t-40.5 -147t-19 -221.5q73 83 154.5 115.5t202.5 32.5q220 0 303.5 -102.5t83.5 -362.5 q0 -94 -9.5 -162.5t-38 -132t-77.5 -102.5t-129.5 -62t-192.5 -23q-102 0 -174 14t-126.5 48.5t-87.5 84.5t-53.5 132t-28 180t-7.5 238zM313 645q0 -93 2.5 -153.5t9 -120.5t20.5 -95.5t35.5 -67t54.5 -47t76 -24t103 -8.5q72 0 121.5 14.5t79 39t46 68.5t21.5 90t5 116 q0 178 -54.5 248.5t-207.5 70.5q-88 0 -157 -28t-155 -103z" />
<glyph unicode="7" horiz-adv-x="1048" d="M80 1413h799q63 0 88 -33t6 -92l-441 -1288h-180l398 1155q16 49 43 105h-705z" />
<glyph unicode="8" horiz-adv-x="1243" d="M141 352q0 175 53 269.5t181 107.5v8q-203 23 -203 324q0 101 20 168t71 114.5t138.5 69t221.5 21.5t221.5 -21t137.5 -69.5t69.5 -115t19.5 -167.5q0 -302 -201 -324v-8q128 -13 180 -107t52 -270q0 -101 -20.5 -167t-74 -113.5t-146.5 -69t-238 -22.5q-143 -1 -237 20 t-148 69t-75.5 115t-21.5 168zM311 389q0 -99 26 -151.5t93.5 -77.5t194.5 -25q95 0 153.5 12.5t92.5 44t46.5 77t12.5 120.5q0 87 -12 137.5t-47 82.5t-91 42.5t-153 10.5q-80 -1 -132 -8.5t-89.5 -25t-57.5 -50t-28.5 -77t-8.5 -112.5zM338 1044q0 -146 57 -192.5 t232 -46.5q73 0 120.5 7t80.5 22t49.5 44.5t23 67.5t6.5 98q0 73 -11 116.5t-42.5 74t-85.5 42t-143 11.5q-117 0 -178.5 -23.5t-85 -74t-23.5 -146.5z" />
<glyph unicode="9" horiz-adv-x="1171" d="M113 952q0 125 23 213t75.5 150.5t139.5 92.5t214 30q63 0 113.5 -5t93 -17.5t75.5 -29t59.5 -43.5t45.5 -57.5t33 -75.5t22.5 -92t13.5 -111.5t7 -130.5t2 -153q0 -159 -12.5 -275.5t-42.5 -200t-70.5 -136t-105.5 -83t-138.5 -42t-177.5 -11.5q-178 0 -305 31l17 133 q98 -8 288 -8q106 0 171 20.5t111.5 78.5t66.5 156.5t24 258.5q-76 -87 -156.5 -120t-203.5 -33q-106 0 -182 33.5t-119 97.5t-62.5 144.5t-19.5 184.5zM285 952q-2 -162 55 -239.5t203 -77.5q89 0 158 29t155 106q0 83 -1.5 137t-6 110.5t-13 90.5t-24 67.5t-36.5 51 t-51.5 32.5t-69.5 20t-91 5q-86 0 -142 -21t-85.5 -66t-40.5 -102.5t-10 -142.5z" />
<glyph unicode=":" horiz-adv-x="483" d="M141 66v110q0 36 15 51t51 15h57q36 0 51 -15t15 -51v-110q0 -36 -15 -51t-51 -15h-57q-36 0 -51 15t-15 51zM141 725v113q0 35 15 49t51 14h57q36 0 51 -14t15 -49v-113q0 -36 -15 -51t-51 -15h-57q-36 0 -51 15t-15 51z" />
<glyph unicode=";" horiz-adv-x="485" d="M152 57v119q3 37 18 51.5t49 14.5h51q36 0 50 -14.5t14 -51.5v-131q-3 -172 -70 -315l-84 24q21 126 21 246q-23 0 -36 15.5t-13 41.5zM152 725v113q0 35 14 49t49 14h59q35 0 49.5 -14t14.5 -49v-113q0 -37 -14.5 -51.5t-49.5 -14.5h-59q-35 0 -49 14.5t-14 51.5z" />
<glyph unicode="&#x3c;" horiz-adv-x="1085" d="M109 541v139l831 356v-139l-680 -287l680 -280v-140z" />
<glyph unicode="=" horiz-adv-x="1198" d="M152 317v132h897v-132h-897zM152 752v129h897v-129h-897z" />
<glyph unicode="&#x3e;" horiz-adv-x="1085" d="M145 190v140l680 280l-680 287v139l832 -356v-139z" />
<glyph unicode="?" horiz-adv-x="1034" d="M82 1415q15 3 55 10t54.5 9.5t49 7.5t58 7t61 4.5t79.5 3.5t93 1q207 0 310.5 -78t103.5 -239q0 -62 -20 -116.5t-52 -97t-71 -82.5t-78.5 -82.5t-72.5 -88.5t-55 -108t-24 -134h-149q-2 105 32 192.5t83 146.5t99 110.5t86 109.5t38 119q3 103 -61.5 152t-204.5 49 q-49 0 -92 -1t-71 -2t-65 -3.5t-54 -3.5t-60 -5t-62 -6zM412 66v110q0 37 14 51.5t49 14.5h47q35 0 49.5 -14.5t14.5 -51.5v-110q0 -37 -14.5 -51.5t-49.5 -14.5h-47q-35 0 -49 14.5t-14 51.5z" />
<glyph unicode="@" horiz-adv-x="1470" d="M154 545q0 116 3 193t14.5 149.5t27 115.5t48 81.5t70.5 57t100.5 33t132 18.5t171.5 5h293q153 0 231 -68.5t78 -222.5v-637h-131l-16 154q-64 -65 -177 -117.5t-231 -52.5q-123 0 -195.5 62.5t-72.5 181.5v104q0 100 60 155.5t175 55.5h424v88q0 83 -38 117.5 t-138 34.5h-262q-60 0 -97.5 -1t-80 -5.5t-66 -11.5t-50.5 -21.5t-40 -32.5t-28 -48t-20.5 -64t-11 -85t-7 -106.5t-1.5 -132.5q0 -101 2 -167t13.5 -125t21.5 -92.5t41 -61.5t57 -39.5t84.5 -20t107.5 -9.5t142 -1h529v-131q-296 -17 -526 -17q-114 -1 -192 2.5t-148.5 17 t-113.5 32.5t-79 58t-54 83t-30.5 118.5t-16 154t-3.5 198.5zM664 528q0 -72 33.5 -103.5t101.5 -31.5q91 0 191.5 36.5t168.5 98.5v179l-364 -9q-72 -3 -101.5 -29.5t-29.5 -86.5v-54z" />
<glyph unicode="A" horiz-adv-x="1273" d="M20 0l455 1364q13 49 68 49h188q55 0 68 -49l454 -1364h-186l-139 442h-582l-139 -442h-187zM395 598h484l-179 561q-18 54 -34 115h-58l-35 -115z" />
<glyph unicode="B" horiz-adv-x="1269" d="M178 0v1413q171 17 459 17q134 0 220 -16.5t144.5 -59t82.5 -113t24 -180.5q0 -154 -57 -233t-183 -91v-8q153 -13 218 -107t65 -270q0 -110 -24 -180.5t-80.5 -112.5t-138.5 -58.5t-208 -16.5q-339 0 -522 16zM354 139q84 -2 318 -2q88 0 141.5 10t90 38t51 75t14.5 123 q0 162 -67 220t-243 61h-305v-525zM354 801h303q80 1 130.5 11.5t84.5 37.5t48 72.5t14 117.5q0 141 -65 188.5t-240 47.5h-275v-475z" />
<glyph unicode="C" d="M125 707q0 205 29 342t96 225t171 126t259 38q129 0 211.5 -9t173.5 -32l-18 -137q-184 18 -367 18q-105 0 -173.5 -28t-112 -96.5t-61.5 -175t-18 -271.5q0 -132 11.5 -225t37 -161.5t69 -108.5t103.5 -58.5t144 -18.5q230 0 395 23l19 -135q-173 -48 -414 -48 q-207 0 -326.5 71.5t-174 229.5t-54.5 431z" />
<glyph unicode="D" horiz-adv-x="1359" d="M178 0v1413q279 19 504 19q207 0 325 -68t172 -224.5t54 -432.5t-54 -432.5t-172 -224.5t-325 -68q-239 0 -504 18zM358 143q184 -4 324 -4q137 0 214.5 53.5t112.5 175.5t35 339q0 131 -12 224t-37.5 160.5t-68.5 107.5t-102 58.5t-142 18.5q-132 0 -324 -4v-1129z" />
<glyph unicode="E" horiz-adv-x="1146" d="M166 244v925q1 114 74 180t198 66q418 0 606 -12l-8 -141h-567q-63 0 -93 -33t-30 -103v-307h610v-145h-610v-387q0 -72 30 -104.5t93 -32.5h567l8 -140q-188 -12 -606 -12q-125 0 -198 66t-74 180z" />
<glyph unicode="F" horiz-adv-x="1103" d="M174 0v1161q0 120 73 187t199 67q404 0 586 -14l-10 -139h-530q-72 0 -105 -32.5t-33 -103.5v-327h590v-146h-590v-653h-180z" />
<glyph unicode="G" horiz-adv-x="1286" d="M127 711q0 213 30 351t102 223.5t181 120t277 34.5q225 0 393 -43l-18 -135q-172 16 -365 16q-81 0 -137 -8.5t-104.5 -32t-78.5 -64t-51.5 -106t-30 -155t-8.5 -214.5q0 -313 68 -440t238 -127q99 0 179 35.5t169 101.5v549h176v-817h-131l-21 150 q-76 -74 -183.5 -125.5t-238.5 -51.5q-236 0 -341 177t-105 561z" />
<glyph unicode="H" horiz-adv-x="1368" d="M178 0v1413h180v-579h652v579h180v-1413h-180v678h-652v-678h-180z" />
<glyph unicode="I" horiz-adv-x="536" d="M178 0v1413h180v-1413h-180z" />
<glyph unicode="J" horiz-adv-x="696" d="M61 8l21 127h102q160 0 160 156v1122h180v-1116q0 -155 -70 -235t-204 -80q-43 0 -100 7.5t-89 18.5z" />
<glyph unicode="K" horiz-adv-x="1210" d="M178 0v1413h178v-442q0 -83 -12 -162h172l430 604h197l-412 -586q-25 -37 -78 -90v-4q57 -54 88 -98l430 -635h-202l-451 664h-174q12 -77 12 -150v-514h-178z" />
<glyph unicode="L" horiz-adv-x="1052" d="M174 264v1149h178v-1126q0 -70 33 -102.5t104 -32.5h510l9 -140q-178 -14 -547 -14q-149 0 -218 71.5t-69 194.5z" />
<glyph unicode="M" horiz-adv-x="1796" d="M150 0l55 1337q3 76 76 76h204q58 0 76 -61l264 -863q15 -49 54 -190h36q43 157 54 195l264 858q15 61 78 61h202q35 0 54.5 -19.5t19.5 -56.5l60 -1337h-181l-51 1264h-43l-315 -1043q-16 -61 -78 -61h-162q-63 0 -82 61l-315 1043h-41l-49 -1264h-180z" />
<glyph unicode="N" horiz-adv-x="1443" d="M178 0v1341q0 72 72 72h170q57 0 80 -57l463 -977q40 -79 96 -205h35q-7 130 -7 215v1024h179v-1341q0 -72 -70 -72h-176q-57 0 -80 57l-477 1002q-69 145 -80 186h-33q8 -81 8 -186v-1059h-180z" />
<glyph unicode="O" horiz-adv-x="1368" d="M125 707q0 279 55 437.5t174.5 227t329.5 68.5q126 0 216.5 -23.5t157 -75t106 -138t58.5 -207.5t19 -289q0 -210 -28.5 -348.5t-96 -225.5t-171 -123.5t-261.5 -36.5t-262 36.5t-171.5 123.5t-96.5 225.5t-29 348.5zM315 707q0 -220 34.5 -342t113.5 -176t221 -54 t221 54t113.5 176t34.5 342t-34.5 342t-113.5 175.5t-221 53.5t-221 -53.5t-113.5 -175.5t-34.5 -342z" />
<glyph unicode="P" horiz-adv-x="1208" d="M178 0v1413q183 19 486 19q131 0 215 -20t139 -72t77.5 -135.5t22.5 -215.5q0 -106 -15 -180t-45.5 -125.5t-83.5 -81t-122 -42.5t-168 -13q-168 0 -326 18v-565h-180zM358 702h304q106 1 163.5 25.5t84 86t26.5 175.5q0 168 -59 227.5t-215 59.5q-224 0 -304 -2v-572z " />
<glyph unicode="Q" horiz-adv-x="1370" d="M127 707q0 210 28.5 348t96 225t171.5 123.5t263 36.5q126 0 216.5 -23.5t157 -75t106 -138t58.5 -207.5t19 -289q0 -210 -28.5 -348.5t-96 -225.5t-171 -123.5t-261.5 -36.5q-211 0 -330.5 69t-174 227t-54.5 438zM317 707q0 -220 34.5 -342t113.5 -176t221 -54 q106 0 174.5 28t113 96.5t63 175.5t18.5 272q0 219 -35.5 341.5t-114 176t-219.5 53.5q-142 0 -221 -53.5t-113.5 -175.5t-34.5 -342zM551 -197l51 109q222 -97 543 -143l-58 -181q-267 54 -536 215z" />
<glyph unicode="R" horiz-adv-x="1265" d="M178 0v1413q183 19 488 19q127 0 210.5 -19t140 -66t81 -125t24.5 -198q0 -173 -61 -259.5t-199 -105.5v-10q57 -15 104.5 -66.5t69.5 -136.5l138 -446h-193l-125 442q-27 79 -72 113.5t-116 34.5q-72 0 -176 1t-136 1v-592h-178zM356 745h306q159 2 218.5 58t59.5 211 q0 153 -59.5 207.5t-218.5 54.5q-226 0 -306 -2v-529z" />
<glyph unicode="S" horiz-adv-x="1148" d="M113 1065q0 82 11.5 142t38 101.5t60.5 67t90 39.5t114 18.5t144 4.5q251 -4 420 -41l-12 -131q-198 10 -399 10q-46 0 -72 -0.5t-58.5 -3.5t-50 -9t-38.5 -16.5t-30.5 -26t-19 -38t-13 -52.5t-3.5 -69q0 -112 39.5 -160t138.5 -72l287 -71q158 -38 221 -132.5t63 -265.5 q0 -98 -18.5 -165.5t-52.5 -111t-94 -67t-131 -32.5t-177 -9q-223 0 -438 39l12 133q296 -10 403 -10h30q87 0 137 8t85.5 33t48.5 69t13 118q0 61 -10 101t-33.5 65.5t-54 39.5t-80.5 27l-293 74q-150 37 -214 132t-64 261z" />
<glyph unicode="T" horiz-adv-x="1189" d="M49 1253v160h1092v-160h-457v-1253h-180v1253h-455z" />
<glyph unicode="U" horiz-adv-x="1363" d="M168 541v872h180v-872q0 -227 74 -316.5t260 -89.5q185 0 259.5 90t74.5 316v872h180v-872q0 -309 -114.5 -438.5t-391.5 -129.5q-286 0 -404 129.5t-118 438.5z" />
<glyph unicode="V" horiz-adv-x="1247" d="M35 1413h186l334 -1120q33 -121 41 -154h55q18 76 43 156l332 1118h186l-428 -1362q-8 -22 -26.5 -36.5t-42.5 -14.5h-183q-26 0 -44.5 14.5t-24.5 36.5z" />
<glyph unicode="W" horiz-adv-x="1941" d="M63 1413h191l221 -1102q9 -46 29 -174h47q13 83 33 174l219 1043q5 27 23.5 43t45.5 16h197q26 0 45 -16t25 -43l219 -1043q20 -99 28 -174h52q18 127 26 172l224 1104h190l-287 -1360q-6 -24 -25 -38.5t-46 -14.5h-205q-26 0 -46 15t-24 40l-221 1063q-17 74 -33 160 h-43q-2 -13 -13 -71.5t-17 -88.5l-220 -1063q-6 -25 -25.5 -40t-45.5 -15h-207q-26 0 -45.5 15t-24.5 38z" />
<glyph unicode="X" horiz-adv-x="1251" d="M51 0l398 731l-371 682h194l324 -610h59l324 610h195l-373 -682l399 -731h-196l-353 664h-53l-350 -664h-197z" />
<glyph unicode="Y" horiz-adv-x="1165" d="M23 1413h192l297 -596q23 -48 63 -160h15q34 96 63 158l297 598h191l-469 -917v-496h-180v498z" />
<glyph unicode="Z" horiz-adv-x="1159" d="M98 0v154l754 1106h-741v153h938v-153l-750 -1106h764v-154h-965z" />
<glyph unicode="[" horiz-adv-x="673" d="M186 -227v1689q0 49 31.5 80t79.5 31h293v-115h-209q-12 0 -20.5 -9.5t-8.5 -23.5v-1615q0 -14 8.5 -23.5t20.5 -9.5h209v-115h-293q-50 0 -80.5 27.5t-30.5 83.5z" />
<glyph unicode="\" horiz-adv-x="1060" d="M55 1413h146l805 -1548h-146z" />
<glyph unicode="]" horiz-adv-x="673" d="M84 -223h207q13 0 22 9.5t9 23.5v1615q0 14 -9 23.5t-22 9.5h-207v115h291q49 0 79.5 -30.5t30.5 -80.5v-1689q0 -50 -30.5 -80.5t-79.5 -30.5h-291v115z" />
<glyph unicode="^" horiz-adv-x="872" d="M61 799l314 430h125l311 -430l-70 -45l-295 356h-16l-297 -356z" />
<glyph unicode="_" horiz-adv-x="1183" d="M143 0h897v-133h-897v133z" />
<glyph unicode="`" horiz-adv-x="645" d="M59 1348l99 133l354 -299l-59 -80z" />
<glyph unicode="a" horiz-adv-x="1124" d="M104 260v109q0 117 73 181t204 64h416v88q0 94 -43.5 133t-159.5 39q-146 0 -428 -26l-16 129q268 45 481 45q173 0 257.5 -72.5t84.5 -247.5v-702h-137l-21 164q-71 -73 -179.5 -127.5t-232.5 -54.5q-136 0 -217.5 73t-81.5 205zM283 281q0 -78 37 -114t118 -36h8 q76 -1 170 37q100 40 181 113v200h-385q-69 -3 -99 -37t-30 -100v-63z" />
<glyph unicode="b" d="M156 47v1387h174v-373q0 -138 -19 -221q179 182 385 182q187 0 274 -121.5t87 -398.5q0 -133 -21.5 -227.5t-71.5 -163.5t-136.5 -102.5t-213.5 -33.5q-109 0 -235.5 19t-222.5 53zM330 158q126 -35 259 -35h21q146 2 206 85t61 294q-1 107 -11.5 174t-38 112.5 t-73.5 63.5t-119 18q-72 0 -138 -34.5t-167 -112.5v-565z" />
<glyph unicode="c" horiz-adv-x="1001" d="M111 500q0 288 107.5 405t367.5 117q197 0 321 -47l-22 -113q-135 12 -271 12q-181 0 -250 -79t-69 -295q0 -217 69 -297t250 -80q166 0 293 20l19 -116q-149 -52 -342 -52q-259 0 -366 118.5t-107 406.5z" />
<glyph unicode="d" horiz-adv-x="1173" d="M115 502q0 193 42 308t122.5 163.5t212.5 48.5q192 0 354 -92q-8 91 -8 196v308h174v-1434h-135l-17 143q-189 -168 -395 -168q-185 0 -267.5 130t-82.5 397zM293 504q0 -147 24.5 -229.5t72.5 -115t132 -32.5q79 0 142.5 29.5t173.5 107.5v551q-103 29 -169 42t-137 13 q-90 0 -139.5 -30t-74.5 -109.5t-25 -226.5z" />
<glyph unicode="e" horiz-adv-x="1099" d="M111 502q0 195 48.5 309t146.5 162.5t263 48.5q222 0 325 -81t103 -245v-7q0 -275 -237 -275h-465q7 -89 27.5 -146t60.5 -89t93 -44t134 -12q171 0 346 24l19 -116q-65 -27 -177 -41.5t-210 -14.5q-259 0 -368 120t-109 407zM293 549h422q108 0 108 147q-2 96 -57.5 137 t-187.5 41q-158 0 -219.5 -68.5t-65.5 -256.5z" />
<glyph unicode="f" horiz-adv-x="778" d="M57 860v127l181 8v181q0 145 67.5 218.5t222.5 73.5q172 0 281 -14l-14 -129h-205q-98 0 -138 -38.5t-40 -129.5v-160h319v-137h-319v-860h-174v860h-181z" />
<glyph unicode="g" horiz-adv-x="1142" d="M84 -111q0 89 37 142t125 100q-70 55 -70 143v14q6 99 78 154q-67 36 -97 99.5t-30 160.5q0 172 95.5 246t332.5 74q139 0 231 -25h312l-11 -96l-147 -12q41 -66 41 -184q0 -168 -96.5 -243t-331.5 -75q-111 0 -207 21q-23 -33 -26 -69q-1 -5 -1 -9q0 -31 21 -56 q24 -30 76 -38l372 -60q138 -21 195 -87t57 -193q0 -175 -104 -242.5t-371 -67.5q-270 0 -375.5 66.5t-105.5 236.5zM254 -96q0 -104 61.5 -137t247.5 -33q183 0 245 34t62 136q0 74 -32 99.5t-140 43.5l-340 47q-56 -43 -80 -85t-24 -105zM287 705q0 -100 59.5 -142.5 t206.5 -42.5q148 0 207 42.5t59 142.5q0 101 -58.5 142.5t-207.5 41.5q-148 0 -207 -41.5t-59 -142.5z" />
<glyph unicode="h" horiz-adv-x="1189" d="M160 0v1434h176v-396q0 -114 -12 -194q241 178 442 178q132 0 201 -69.5t69 -204.5v-748h-176v698q0 99 -32 137.5t-109 38.5q-84 0 -168.5 -36t-216.5 -119v-719h-174z" />
<glyph unicode="i" horiz-adv-x="507" d="M160 1251v117q0 53 53 53h82q53 0 53 -53v-117q0 -53 -53 -53h-82q-53 0 -53 53zM168 0v997h172v-997h-172z" />
<glyph unicode="j" horiz-adv-x="512" d="M55 -340q60 74 87.5 147t27.5 168v1022h174v-1022q0 -119 -51 -221.5t-141 -169.5zM164 1251v117q0 53 53 53h82q51 0 51 -53v-117q0 -53 -51 -53h-82q-53 0 -53 53z" />
<glyph unicode="k" horiz-adv-x="1042" d="M160 0v1434h176v-637q0 -101 -10 -170h131l315 370h203l-313 -366q-30 -41 -70 -68v-4q43 -33 70 -80l346 -479h-203l-346 500h-135q10 -92 10 -160v-340h-174z" />
<glyph unicode="l" horiz-adv-x="608" d="M162 236v1198h174v-1160q-1 -65 33.5 -99t101.5 -34h96l21 -133q-27 -12 -82.5 -19t-99.5 -7q-112 0 -178 66.5t-66 187.5z" />
<glyph unicode="m" horiz-adv-x="1794" d="M160 0v997h143l10 -157q210 182 408 182q208 0 252 -176q203 176 401 176q130 0 198 -70t68 -204v-748h-172v698q-2 93 -37.5 134.5t-117.5 41.5q-73 0 -139.5 -33t-188.5 -122v-719h-168v698q0 95 -37.5 135.5t-117.5 40.5q-72 0 -139 -32.5t-189 -120.5v-721h-174z" />
<glyph unicode="n" horiz-adv-x="1189" d="M160 0v997h147l12 -157q241 182 447 182q132 0 201 -69.5t69 -204.5v-748h-174v698q0 98 -32.5 137t-110.5 39q-82 0 -164.5 -36.5t-220.5 -120.5v-717h-174z" />
<glyph unicode="o" horiz-adv-x="1163" d="M113 498q0 286 106.5 405t362.5 119q257 0 363 -119t106 -405q0 -288 -105.5 -406.5t-363.5 -118.5q-257 0 -363 119t-106 406zM295 498q0 -217 61.5 -297t225.5 -80t226 80t62 297t-62 296.5t-226 79.5t-225.5 -79.5t-61.5 -296.5z" />
<glyph unicode="p" horiz-adv-x="1187" d="M160 -412v1409h143l14 -159q81 85 193.5 134.5t220.5 49.5q179 0 260.5 -131.5t81.5 -396.5q0 -283 -90 -401t-287 -118q-196 0 -368 103q6 -70 6 -201v-289h-174zM334 188q110 -33 178 -47t141 -14q91 0 141.5 30.5t75.5 110.5t25 226q0 209 -50.5 292.5t-170.5 83.5 q-78 0 -154.5 -36t-185.5 -117v-529z" />
<glyph unicode="q" d="M113 496q0 135 21.5 229t72 163t138 101.5t216.5 32.5q101 0 228.5 -19t222.5 -51v-1364h-176v342q0 130 16 205q-196 -162 -397 -162q-174 0 -258 126.5t-84 396.5zM291 483q0 -190 47.5 -273t173.5 -83q83 0 153 31.5t173 103.5v578q-121 34 -251 34h-28 q-102 -2 -158 -36t-83 -118t-27 -237z" />
<glyph unicode="r" horiz-adv-x="821" d="M160 0v997h135l18 -157q229 182 426 182h45l-20 -164h-57q-77 0 -157.5 -29.5t-215.5 -97.5v-731h-174z" />
<glyph unicode="s" horiz-adv-x="1040" d="M102 748q0 86 21.5 140.5t72.5 84.5q52 31 120 41q58 9 142 8h34q231 -4 419 -31l-14 -127q-313 10 -379 10h-82t-63.5 -4t-46.5 -11.5t-31 -22t-17.5 -35.5t-5.5 -53q0 -38 8 -62.5t30 -40t44 -23.5t64 -18l291 -65q123 -30 177 -90.5t54 -184.5q0 -73 -17.5 -124 t-48.5 -83t-86 -49.5t-118 -24t-156 -6.5q-208 0 -391 29l12 127q137 -9 271 -9q37 0 73 1q173 0 233 26t60 113q0 36 -10 59.5t-34.5 38.5t-47 23t-66.5 18l-286 66q-122 29 -174 93t-52 186z" />
<glyph unicode="t" horiz-adv-x="780" d="M55 860v127l181 8v297h174v-295h317v-137h-317v-586q0 -72 31 -102.5t104 -30.5h151l21 -133q-95 -26 -225 -26q-125 0 -190.5 69.5t-65.5 200.5v608h-181z" />
<glyph unicode="u" d="M154 248v749h174v-700v-5q0 -90 34 -128q36 -38 123 -39q75 0 153.5 33.5t195.5 109.5v729h174v-997h-140l-12 143q-226 -170 -430 -170q-135 0 -203.5 70t-68.5 205z" />
<glyph unicode="v" horiz-adv-x="1085" d="M37 997h186l246 -698q31 -87 59 -174h27l61 174l246 698h185l-365 -954q-16 -43 -61 -43h-158q-46 0 -62 43z" />
<glyph unicode="w" horiz-adv-x="1687" d="M51 997h180l207 -735q20 -71 33 -149h27l37 149l165 680q5 25 22.5 40t43.5 15h158q25 0 42 -15.5t23 -41.5l164 -678q5 -23 17.5 -72.5t17.5 -76.5h26q4 17 10 47t12 54.5t13 47.5l207 735h180l-290 -948q-13 -49 -68 -49h-158q-25 0 -44 15t-23 40l-164 678 q-7 28 -17.5 82t-15.5 76h-25l-34 -158l-162 -678q-6 -25 -25 -40t-45 -15h-155q-55 0 -68 49z" />
<glyph unicode="x" horiz-adv-x="1081" d="M47 0l334 514l-309 483h188l258 -411h47l256 411h189l-310 -483l334 -514h-188l-285 451h-41l-282 -451h-191z" />
<glyph unicode="y" horiz-adv-x="1083" d="M37 997h186l264 -743q31 -91 37 -121h29q22 57 43 121l260 743h188l-399 -1052q-132 -352 -436 -367l-16 115q116 37 182.5 100.5t107.5 163.5l17 43h-39q-22 0 -39 12t-23 33z" />
<glyph unicode="z" horiz-adv-x="1044" d="M100 0v141l641 713h-635v143h832v-143l-643 -713h649v-141h-844z" />
<glyph unicode="{" horiz-adv-x="653" d="M94 608v127q71 22 87 34q28 21 31 86q1 16 1 38v407q0 149 83.5 217.5t268.5 55.5v-111q-105 0 -144.5 -39t-39.5 -135v-366q1 -126 -36 -177t-146 -73q112 -35 150 -84.5t40 -157.5v-485q0 -94 39.5 -133t144.5 -39v-111q-185 -13 -268.5 55t-83.5 217v525 q0 49 -13.5 76t-34 38.5t-68.5 30.5q-7 3 -11 4z" />
<glyph unicode="|" horiz-adv-x="503" d="M188 -346v1945h127v-1945h-127z" />
<glyph unicode="}" horiz-adv-x="655" d="M82 -227q105 0 144.5 39t39.5 133v485q2 108 40.5 157.5t150.5 84.5q-109 22 -146.5 73t-36.5 177v366q0 96 -39.5 135t-144.5 39v111q185 13 268.5 -55.5t83.5 -217.5v-407q0 -61 9.5 -88.5t28.5 -39t67 -26.5l4.5 -1.5t4.5 -1t5 -1.5v-127q-75 -29 -94 -45 q-33 -29 -33 -104v-525q0 -149 -83.5 -217t-268.5 -55v111z" />
<glyph unicode="~" horiz-adv-x="1075" d="M158 467q-14 122 31 185.5t126 60.5q75 -4 218 -59.5t204 -61.5q53 -6 72.5 19t19.5 91h91q13 -119 -31.5 -182.5t-126.5 -58.5q-69 3 -148.5 31t-152.5 56.5t-121 33.5q-53 6 -72.5 -20.5t-19.5 -94.5h-90z" />
<glyph unicode="&#xa2;" horiz-adv-x="1040" d="M111 715q0 287 107.5 405.5t365.5 118.5h12l16 174h95l-17 -178q129 -11 215 -45l-22 -117q-121 14 -207 17l-64 -752q156 0 293 22l19 -116q-145 -51 -326 -51l-18 -193h-93l19 195q-215 15 -305 134.5t-90 385.5zM283 715q0 -188 53 -271t184 -100l62 746 q-167 -6 -233 -87t-66 -288z" />
<glyph unicode="&#xa3;" horiz-adv-x="1165" d="M115 692v103h157l-16 272q-4 95 12 162t46 107.5t82.5 63.5t110 30.5t140.5 7.5q149 0 367 -21l-10 -143q-145 8 -361 8q-124 0 -170.5 -47t-40.5 -170l17 -270h434l-4 -103h-424l10 -153q6 -145 -27.5 -234t-120.5 -158q53 7 138 7h606v-154h-934v154q99 51 133.5 147 t26.5 238l-8 153h-164z" />
<glyph unicode="&#xa5;" horiz-adv-x="1265" d="M74 1413h186l297 -563q16 -29 40.5 -89t29.5 -71h14q38 96 68 158l295 565h188l-404 -751h299v-107h-354l-10 -16v-109h364v-104h-364v-326h-180v326h-357v104h357v109l-8 16h-347l-2 107h291z" />
<glyph unicode="&#xa8;" horiz-adv-x="841" d="M164 1257v113q0 49 47 49h59q47 0 47 -49v-113q0 -49 -47 -49h-59q-47 0 -47 49zM526 1257v113q0 49 49 49h58q49 0 49 -49v-113q0 -49 -49 -49h-58q-49 0 -49 49z" />
<glyph unicode="&#xa9;" horiz-adv-x="1712" d="M121 707q0 209 98.5 377.5t266.5 262t370 93.5q203 0 371 -93.5t266 -262t98 -377.5q0 -157 -57.5 -294t-156 -233t-234 -151.5t-287.5 -55.5q-151 0 -286.5 55.5t-234 151.5t-156.5 233t-58 294zM217 707q0 -181 86.5 -328t232.5 -229t320 -82q175 0 321 82t232 229 t86 328t-86 328t-232 229t-321 82q-174 0 -320 -82t-232.5 -229t-86.5 -328zM467 711q0 249 89.5 350.5t309.5 101.5q162 0 277 -28l-17 -99q-132 6 -262 6q-148 0 -204 -71t-56 -260q0 -188 56 -260t204 -72q186 0 287 12l12 -100q-130 -31 -297 -31q-220 0 -309.5 101 t-89.5 350z" />
<glyph unicode="&#xab;" horiz-adv-x="993" d="M90 494v41l330 405l90 -61l-258 -365l260 -373l-90 -61zM463 494v41l328 405l92 -61l-258 -365l260 -373l-92 -61z" />
<glyph unicode="&#xad;" horiz-adv-x="919" d="M147 451v133h625v-133h-625z" />
<glyph unicode="&#xae;" horiz-adv-x="1132" d="M111 983q0 189 133 322t323 133q189 0 322 -133t133 -322q0 -190 -133 -323.5t-322 -133.5q-190 0 -323 133t-133 324zM174 983q0 -164 115 -279.5t278 -115.5q162 0 276.5 115.5t114.5 279.5q0 163 -115 279t-276 116q-163 0 -278 -116t-115 -279zM362 719v530 q70 6 224 6q115 0 163 -33t48 -120q0 -61 -28 -93.5t-93 -39.5v-4q26 -3 48 -23t32 -55l61 -168h-86l-57 164q-21 55 -86 55h-144v-219h-82zM444 997h140q73 2 101.5 23t27.5 74q1 58 -26.5 77t-102.5 19h-140v-193z" />
<glyph unicode="&#xb4;" horiz-adv-x="643" d="M113 1182l352 299l100 -133l-393 -246z" />
<glyph unicode="&#xb8;" horiz-adv-x="479" d="M70 -469l26 92q84 -3 136.5 37t54.5 104q2 37 -23 51t-98 15l18 82q124 11 177.5 -16.5t50.5 -116.5q-3 -130 -99 -199t-243 -49z" />
<glyph unicode="&#xbb;" horiz-adv-x="993" d="M109 141l260 373l-258 365l92 61l327 -405v-41l-329 -414zM479 141l262 373l-260 365l92 61l328 -405v-41l-330 -414z" />
<glyph unicode="&#x2c6;" horiz-adv-x="860" d="M98 1200l271 260h125l272 -260l-61 -76l-265 199h-16l-266 -199z" />
<glyph unicode="&#x2da;" horiz-adv-x="614" d="M88 1305q0 90 64.5 152.5t154.5 62.5t154.5 -62.5t64.5 -152.5q0 -92 -63.5 -153.5t-155.5 -61.5t-155.5 61.5t-63.5 153.5zM186 1305q0 -57 34.5 -91t86.5 -34q54 0 88.5 34t34.5 91q0 56 -35 90.5t-88 34.5t-87 -34.5t-34 -90.5z" />
<glyph unicode="&#x2dc;" horiz-adv-x="860" d="M106 1198q-12 118 34.5 179t125.5 55q43 -3 85.5 -20t71.5 -35.5t69.5 -36t78.5 -21.5q57 -7 79 17t22 85h82q12 -113 -33 -174t-127 -55q-47 3 -93 20.5t-76.5 37t-68.5 37.5t-71 22q-55 6 -76 -20.5t-21 -90.5h-82z" />
<glyph unicode="&#x401;" horiz-adv-x="1146" d="M166 244v925q0 114 73.5 180t198.5 66q416 0 604 -12l-8 -141h-567q-63 0 -92 -32.5t-29 -103.5v-307h608v-145h-608v-387q0 -72 29 -104.5t92 -32.5h567l8 -140q-188 -12 -604 -12q-126 0 -199 66t-73 180zM375 1663v111q0 49 47 49h59q47 0 47 -49v-111 q0 -26 -11 -37.5t-36 -11.5h-59q-25 0 -36 11.5t-11 37.5zM737 1663v111q0 49 49 49h58q49 0 49 -49v-111q0 -49 -49 -49h-58q-26 0 -37.5 11.5t-11.5 37.5z" />
<glyph unicode="&#x402;" horiz-adv-x="1540" d="M49 1253v160h1092v-160h-457v-467q194 119 416 119q63 0 112.5 -10.5t95.5 -39.5t76 -76.5t48 -124t18 -179.5q0 -137 -36 -233.5t-106 -152t-164 -79t-218 -18.5l-17 131q95 6 158 23t111.5 54t71 100.5t22.5 158.5q0 93 -13 151t-44 88.5t-70.5 41t-102.5 10.5 q-89 0 -172 -25t-186 -82v-643h-180v1253h-455z" />
<glyph unicode="&#x403;" horiz-adv-x="1060" d="M174 0v1149q0 118 72.5 192t185.5 74q402 0 586 -14l-8 -139h-518q-73 0 -106.5 -34.5t-33.5 -111.5v-1116h-178zM469 1571l354 301l99 -135l-392 -246z" />
<glyph unicode="&#x404;" horiz-adv-x="1181" d="M125 707q0 205 29.5 342t98 225t175 126t266.5 38q130 0 214 -9t175 -32l-18 -140q-167 19 -373 19q-197 0 -282 -101t-97 -356h605v-141h-607q2 -206 39 -322t118 -167.5t224 -51.5q223 0 385 23l21 -137q-170 -48 -404 -48q-213 0 -335.5 71.5t-178 229.5t-55.5 431z " />
<glyph unicode="&#x405;" horiz-adv-x="1148" d="M113 1065q0 82 11.5 142t38 101.5t60.5 67t90 39.5t114 18.5t144 4.5q251 -4 420 -41l-12 -131q-198 10 -399 10q-46 0 -72 -0.5t-58.5 -3.5t-50 -9t-38.5 -16.5t-30.5 -26t-19 -38t-13 -52.5t-3.5 -69q0 -112 39.5 -160t138.5 -72l287 -71q158 -38 221 -132.5t63 -265.5 q0 -98 -18.5 -165.5t-52.5 -111t-94 -67t-131 -32.5t-177 -9q-223 0 -438 39l12 133q345 -12 433 -10q87 0 137 8t85.5 33t48.5 69t13 118q0 61 -10 101t-33.5 65.5t-54 39.5t-80.5 27l-293 74q-150 37 -214 132t-64 261z" />
<glyph unicode="&#x406;" horiz-adv-x="536" d="M178 0v1413h180v-1413h-180z" />
<glyph unicode="&#x407;" horiz-adv-x="536" d="M8 1618v113q0 49 49 49h60q47 0 47 -49v-113q0 -49 -47 -49h-60q-49 0 -49 49zM178 0v1413h180v-1413h-180zM371 1618v113q0 49 49 49h59q47 0 47 -49v-113q0 -49 -47 -49h-59q-49 0 -49 49z" />
<glyph unicode="&#x408;" horiz-adv-x="696" d="M61 8l21 127h102q160 0 160 156v1122h180v-1116q0 -155 -70 -235t-204 -80q-43 0 -100 7.5t-89 18.5z" />
<glyph unicode="&#x409;" horiz-adv-x="1986" d="M45 121q57 23 104 66.5t93 129.5q62 119 85 263.5t48 461.5q5 70 8 107q15 264 293 264h461v-569h290q133 0 220.5 -22t143 -74.5t78.5 -133t23 -202.5q0 -126 -23.5 -208.5t-78.5 -131.5t-134.5 -68.5t-201.5 -19.5q-318 0 -496 16v8v1258h-266q-66 0 -97.5 -36 t-37.5 -108q-37 -412 -61.5 -567.5t-83.5 -288.5q-59 -132 -141.5 -195.5t-211.5 -72.5zM1137 143q78 -2 290 -2q169 0 226 54.5t57 220.5q0 80 -11.5 129.5t-43 84t-86 48.5t-142.5 14h-290v-549z" />
<glyph unicode="&#x40a;" horiz-adv-x="2004" d="M178 0v1413h180v-573h617v573h178v-573h293q261 0 362 -94t101 -336q0 -126 -23.5 -207.5t-78 -130.5t-133.5 -68.5t-201 -19.5q-320 0 -498 16v692h-617v-692h-180zM1153 143q78 -2 293 -2q115 0 174 22.5t84 79.5t25 169q0 81 -11.5 131t-43.5 85t-86.5 49.5 t-141.5 14.5h-293v-549z" />
<glyph unicode="&#x40b;" horiz-adv-x="1589" d="M49 1253v160h1092v-160h-457v-469q231 121 467 121q165 0 244.5 -78.5t79.5 -240.5v-586h-181v551q0 108 -45.5 152.5t-158.5 44.5q-106 0 -197 -25t-209 -86v-637h-180v1253h-455z" />
<glyph unicode="&#x40c;" horiz-adv-x="1228" d="M178 0v1413h178v-442q0 -83 -12 -162h154q44 0 82 10.5t70 33.5t59 50t52.5 70t46 83t43.5 99t40 107t42 119q2 7 3.5 11t3.5 10t4 11h184l-21 -60q-39 -112 -59 -165.5t-55 -137t-63.5 -124.5t-69.5 -88.5t-88.5 -69t-105.5 -27.5v-8q51 -5 94 -21.5t78 -44t65.5 -67 t57 -88t52.5 -109t51.5 -128.5t54.5 -148q30 -83 46 -127h-190q-105 292 -130 352q-77 184 -162 252q-76 60 -185 60h-154q12 -77 12 -150v-514h-178zM487 1571l353 301l100 -135l-393 -246z" />
<glyph unicode="&#x40d;" horiz-adv-x="1415" d="M178 0v1413h174v-1020q0 -76 -10 -168h8q36 79 80 154l621 1034h186v-1413h-174v1030q0 96 10 162h-10q-28 -71 -74 -154l-627 -1038h-184zM362 1737l101 135l352 -301l-59 -80z" />
<glyph unicode="&#x40e;" horiz-adv-x="1153" d="M43 1413h186l285 -817q13 -33 47 -33h82l301 850h184l-380 -1065q-24 -65 -43.5 -110.5t-48.5 -94.5t-60 -79.5t-73.5 -52t-92.5 -25.5q-51 -3 -126.5 5.5t-127.5 22.5l21 133q56 -5 90 -7.5t69.5 -1t53.5 4t40 16t32 25t27 40t27 53t29 71.5l25 64h-78q-57 0 -90.5 23 t-50.5 73zM268 1796l90 14q0 -74 57 -113.5t163 -39.5q103 0 159.5 40t55.5 113l90 -14q8 -121 -75 -194.5t-230 -73.5q-149 0 -233.5 73.5t-76.5 194.5z" />
<glyph unicode="&#x40f;" horiz-adv-x="1380" d="M178 0v1413h180v-1266h664v1266h180v-1413h-436l-8 -309h-123l-12 309h-445z" />
<glyph unicode="&#x410;" horiz-adv-x="1273" d="M20 0l455 1364q13 49 68 49h188q55 0 68 -49l454 -1364h-186l-139 442h-582l-139 -442h-187zM395 598h484l-179 561q-18 54 -34 115h-58l-35 -115z" />
<glyph unicode="&#x411;" horiz-adv-x="1226" d="M178 0v1413q220 12 438 12q216 0 431 -12l-17 -149h-672v-459h299q262 0 363.5 -91.5t101.5 -324.5q0 -68 -7 -122t-23.5 -95.5t-37.5 -71.5t-54.5 -51t-68.5 -34.5t-86 -20.5t-100.5 -9.5t-117.5 -2.5q-242 0 -445 18h-4zM358 139q78 -2 299 -2q88 0 140 10.5t85.5 40 t45.5 78.5t12 131q0 78 -11.5 126t-43 81.5t-86 46.5t-142.5 13h-299v-525z" />
<glyph unicode="&#x412;" horiz-adv-x="1269" d="M178 0v1413q171 17 459 17q134 0 220 -16.5t144.5 -59t82.5 -113t24 -180.5q0 -154 -57 -233t-183 -91v-8q153 -13 218 -107t65 -270q0 -110 -24 -180.5t-80.5 -112.5t-138.5 -58.5t-208 -16.5q-339 0 -522 16zM354 139q84 -2 318 -2q88 0 141.5 10t90 38t51 75t14.5 123 q0 162 -67 220t-243 61h-305v-525zM354 801h303q80 1 130.5 11.5t84.5 37.5t48 72.5t14 117.5q0 141 -65 188.5t-240 47.5h-275v-475z" />
<glyph unicode="&#x413;" horiz-adv-x="1060" d="M174 0v1149q0 118 72.5 192t185.5 74q402 0 586 -14l-8 -139h-518q-73 0 -106.5 -34.5t-33.5 -111.5v-1116h-178z" />
<glyph unicode="&#x414;" horiz-adv-x="1419" d="M45 147h137q99 213 145.5 460t61.5 542q5 125 80 194.5t207 69.5h504v-1266h174v-456h-125l-17 309h-1024l-18 -309h-125v456zM356 147h643v1119h-290q-76 0 -109.5 -33t-38.5 -111q-19 -322 -63.5 -551t-141.5 -424z" />
<glyph unicode="&#x415;" horiz-adv-x="1146" d="M166 244v925q0 114 73.5 180t198.5 66q416 0 604 -12l-8 -141h-567q-63 0 -92 -32.5t-29 -103.5v-307h608v-145h-608v-387q0 -72 29 -104.5t92 -32.5h567l8 -140q-188 -12 -604 -12q-126 0 -199 66t-73 180z" />
<glyph unicode="&#x416;" horiz-adv-x="1859" d="M63 0q9 26 27 77q45 128 67 188t60 150.5t67.5 132.5t72.5 90t92.5 68.5t111.5 26.5v8q-58 6 -106 29.5t-86.5 65t-70.5 91t-62 120t-56 140t-58 162.5q-14 42 -22 64h185q96 -262 133 -342q85 -182 185 -235q51 -27 112 -27h145q-12 80 -12 162v442h172v-442 q0 -98 -12 -162h135q51 0 94.5 18t79.5 55t66 82.5t60 111.5t55 131t57 151q13 36 20 55h184q-7 -19 -20 -57q-39 -111 -59 -165t-55.5 -138.5t-64 -125.5t-69.5 -88.5t-89 -69.5t-106 -28v-8q152 -14 250 -145q75 -101 165 -346q8 -23 85 -242h-190q-12 33 -35 96 q-37 101 -54.5 148t-49 122t-52 108.5t-52.5 78.5t-62.5 63.5t-70.5 33t-87 14.5h-135q12 -76 12 -150v-514h-172v514q0 61 14 150h-147q-54 0 -98 -16t-80.5 -51t-66 -78.5t-60.5 -112t-58 -137.5t-63 -168q-24 -66 -37 -101h-189z" />
<glyph unicode="&#x417;" horiz-adv-x="1126" d="M76 29l14 131q239 -27 440 -27q85 0 136.5 10t87.5 38t50.5 76t14.5 126q0 161 -66 220t-237 59h-237v141h237q152 0 209 49t57 188q0 144 -63 193t-232 49q-122 0 -364 -22l-14 137q179 33 389 33q134 0 219 -16.5t142 -59t80.5 -113t23.5 -180.5q0 -154 -56.5 -233 t-181.5 -91v-8q151 -13 215 -106.5t64 -270.5q0 -110 -24 -180.5t-79.5 -112.5t-136.5 -58.5t-205 -16.5q-293 0 -483 45z" />
<glyph unicode="&#x418;" horiz-adv-x="1415" d="M178 0v1413h174v-1020q0 -76 -10 -168h8q36 79 80 154l621 1034h186v-1413h-174v1030q0 96 10 162h-10q-28 -71 -74 -154l-627 -1038h-184z" />
<glyph unicode="&#x419;" horiz-adv-x="1415" d="M178 0v1413h174v-1020q0 -76 -10 -168h8q36 79 80 154l621 1034h186v-1413h-174v1030q0 96 10 162h-10q-28 -71 -74 -154l-627 -1038h-184zM403 1808h134q0 -89 46 -136.5t130 -47.5q83 0 127.5 47.5t44.5 136.5h133q8 -122 -76 -202t-229 -80q-147 0 -232.5 80 t-77.5 202z" />
<glyph unicode="&#x41a;" horiz-adv-x="1228" d="M178 0v1413h178v-442q0 -83 -12 -162h154q44 0 82 10.5t70 33.5t59 50t52.5 70t46 83t43.5 99t40 107t42 119q2 7 3.5 11t3.5 10t4 11h184l-21 -60q-39 -112 -59 -165.5t-55 -137t-63.5 -124.5t-69.5 -88.5t-88.5 -69t-105.5 -27.5v-8q51 -5 94 -21.5t78 -44t65.5 -67 t57 -88t52.5 -109t51.5 -128.5t54.5 -148q30 -83 46 -127h-190q-105 292 -130 352q-77 184 -162 252q-76 60 -185 60h-154q12 -77 12 -150v-514h-178z" />
<glyph unicode="&#x41b;" horiz-adv-x="1333" d="M20 137q70 22 119 62.5t84 115.5q58 129 84 286.5t58 553.5q24 258 280 258h510v-1413h-180v1266h-283q-139 0 -151 -144q-15 -168 -20 -222.5t-17 -167.5t-20 -154t-22 -110.5t-30.5 -112.5t-38.5 -89q-123 -268 -356 -268z" />
<glyph unicode="&#x41c;" horiz-adv-x="1796" d="M150 0l55 1337q3 76 76 76h204q58 0 76 -61l264 -863q15 -49 54 -190h36q43 157 54 195l264 858q15 61 78 61h202q35 0 54.5 -19.5t19.5 -56.5l60 -1337h-181l-51 1264h-43l-315 -1043q-16 -61 -78 -61h-162q-63 0 -82 61l-315 1043h-41l-49 -1264h-180z" />
<glyph unicode="&#x41d;" horiz-adv-x="1368" d="M178 0v1413h180v-579h652v579h180v-1413h-180v678h-652v-678h-180z" />
<glyph unicode="&#x41e;" horiz-adv-x="1368" d="M125 707q0 279 55 437.5t174.5 227t329.5 68.5q126 0 216.5 -23.5t157 -75t106 -138t58.5 -207.5t19 -289q0 -210 -28.5 -348.5t-96 -225.5t-171 -123.5t-261.5 -36.5t-262 36.5t-171.5 123.5t-96.5 225.5t-29 348.5zM315 707q0 -220 34.5 -342t113.5 -176t221 -54 t221 54t113.5 176t34.5 342t-34.5 342t-113.5 175.5t-221 53.5t-221 -53.5t-113.5 -175.5t-34.5 -342z" />
<glyph unicode="&#x41f;" horiz-adv-x="1370" d="M178 0v1413h1014v-1413h-180v1266h-654v-1266h-180z" />
<glyph unicode="&#x420;" horiz-adv-x="1208" d="M178 0v1413q183 19 488 19q131 0 214 -20t138 -72t77.5 -135.5t22.5 -215.5q0 -106 -15 -180t-45.5 -125.5t-83.5 -81t-122 -42.5t-168 -13q-164 0 -326 18v-565h-180zM358 702h304q106 1 163.5 25.5t84 86t26.5 175.5q0 168 -59 227.5t-215 59.5q-222 0 -304 -2v-572z " />
<glyph unicode="&#x421;" d="M125 707q0 205 29 342t96 225t171 126t259 38q129 0 211.5 -9t173.5 -32l-18 -137q-184 18 -367 18q-105 0 -173.5 -28t-112 -96.5t-61.5 -175t-18 -271.5q0 -132 11.5 -225t37 -161.5t69 -108.5t103.5 -58.5t144 -18.5q230 0 395 23l19 -135q-173 -48 -414 -48 q-207 0 -326.5 71.5t-174 229.5t-54.5 431z" />
<glyph unicode="&#x422;" horiz-adv-x="1189" d="M49 1253v160h1092v-160h-457v-1253h-180v1253h-455z" />
<glyph unicode="&#x423;" horiz-adv-x="1153" d="M43 1413h186l285 -817q13 -33 47 -33h82l301 850h184l-380 -1065q-24 -65 -43.5 -110.5t-48.5 -94.5t-60 -79.5t-73.5 -52t-92.5 -25.5q-51 -3 -126.5 5.5t-127.5 22.5l21 133q56 -5 90 -7.5t69.5 -1t53.5 4t40 16t32 25t27 40t27 53t29 71.5l25 64h-78q-57 0 -90.5 23 t-50.5 73z" />
<glyph unicode="&#x424;" horiz-adv-x="1683" d="M104 721q0 326 145 461t503 147v199h180v-199q181 -6 301 -40t198.5 -107t112.5 -184t35 -277q-1 -319 -146.5 -452.5t-500.5 -145.5v-199h-180v199q-357 12 -502.5 145.5t-145.5 452.5zM289 721q0 -246 101 -342t368 -105v904q-268 -9 -368.5 -106.5t-100.5 -350.5z M924 274q267 9 368.5 105t102.5 342q-1 253 -102 350.5t-369 106.5v-904z" />
<glyph unicode="&#x425;" horiz-adv-x="1255" d="M53 0l398 731l-371 682h194l324 -610h57l326 610h195l-373 -682l399 -731h-196l-353 664h-53l-352 -664h-195z" />
<glyph unicode="&#x426;" horiz-adv-x="1415" d="M178 0v1413h180v-1266h637v1266h181v-1266h174v-456h-125l-17 309h-1030z" />
<glyph unicode="&#x427;" horiz-adv-x="1280" d="M123 834v579h180v-543q-2 -103 45 -148.5t154 -45.5q111 0 205 23.5t217 84.5v629h178v-1413h-178v645q-120 -66 -248.5 -98.5t-237.5 -32.5q-161 0 -238 78.5t-77 241.5z" />
<glyph unicode="&#x428;" horiz-adv-x="1902" d="M178 0v1413h176v-1266h510v1266h174v-1266h510v1266h176v-1413h-1546z" />
<glyph unicode="&#x429;" horiz-adv-x="1949" d="M178 0v1413h176v-1266h502v1266h176v-1266h504v1266h174v-1266h174v-456h-125l-16 309h-1565z" />
<glyph unicode="&#x42a;" horiz-adv-x="1531" d="M47 1253v160h631v-569h295q260 0 361.5 -96t101.5 -338q0 -126 -23.5 -207.5t-78.5 -130.5t-134 -68.5t-201 -19.5q-322 0 -503 16v1253h-449zM678 143q78 -2 295 -2q87 0 139 11t85.5 42.5t45.5 82.5t12 135q0 81 -11.5 131t-43 85t-86 49.5t-141.5 14.5h-295v-549z" />
<glyph unicode="&#x42b;" horiz-adv-x="1732" d="M178 0v1413h180v-569h299q260 0 361.5 -96t101.5 -338q0 -126 -23.5 -207.5t-78 -130.5t-133.5 -68.5t-201 -19.5q-324 0 -502 16h-4zM358 143q78 -2 299 -2q115 0 174 22.5t84 79.5t25 169q0 81 -11.5 131t-43.5 85t-86.5 49.5t-141.5 14.5h-299v-549zM1376 0v1413h178 v-1413h-178z" />
<glyph unicode="&#x42c;" horiz-adv-x="1216" d="M178 0v1413h180v-569h299q260 0 361.5 -96t101.5 -338q0 -126 -23.5 -207.5t-78 -130.5t-133.5 -68.5t-201 -19.5q-324 0 -502 16h-4zM358 143q78 -2 299 -2q115 0 174 22.5t84 79.5t25 169q0 81 -11.5 131t-43.5 85t-86.5 49.5t-141.5 14.5h-299v-549z" />
<glyph unicode="&#x42d;" horiz-adv-x="1181" d="M84 23l18 137q162 -23 385 -23q143 0 224.5 51.5t118.5 168t38 323.5h-606v141h604q-12 253 -97.5 354t-281.5 101q-206 0 -370 -19l-21 140q165 41 391 41q213 0 335.5 -71.5t177.5 -229t55 -430.5t-55 -431t-177.5 -229.5t-335.5 -71.5q-236 0 -403 48z" />
<glyph unicode="&#x42e;" horiz-adv-x="1898" d="M180 0v1413h180v-606h322q8 238 63.5 375.5t166.5 197.5t298 60q159 0 263 -36.5t171.5 -123.5t96 -225t28.5 -348q0 -280 -54.5 -438t-174 -227t-330.5 -69q-194 0 -306.5 65.5t-166 214t-57.5 409.5h-320v-662h-180zM858 707q0 -220 33 -342t108.5 -176t210.5 -54 q142 0 221 54t114 176t36 342q-1 220 -36 342t-114 175.5t-221 53.5q-135 0 -210.5 -53.5t-108.5 -175.5t-33 -342z" />
<glyph unicode="&#x42f;" horiz-adv-x="1255" d="M88 0l131 432q26 86 78 135t115 64l-2 10q-266 38 -263 377q0 224 104.5 319t344.5 95q300 0 481 -19v-1413h-180v575q-31 0 -133.5 -1t-173.5 -1q-72 0 -117.5 -34.5t-69.5 -114.5l-122 -424h-193zM328 1008q0 -142 59.5 -210.5t202.5 -68.5h307v545q-78 2 -299 2 q-149 0 -209 -57t-61 -211z" />
<glyph unicode="&#x430;" horiz-adv-x="1130" d="M109 260v109q0 117 72 181t204 64h416v88q-2 95 -44.5 133.5t-158.5 38.5q-144 0 -430 -26l-16 129q272 45 483 45q173 0 256.5 -72.5t83.5 -247.5v-702h-137l-21 164q-71 -73 -178.5 -127.5t-232.5 -54.5q-136 0 -216.5 72.5t-80.5 205.5zM285 281q0 -78 37.5 -114 t117.5 -36q79 -2 178 37.5t183 112.5v200h-385q-70 -3 -100.5 -37.5t-30.5 -99.5v-63z" />
<glyph unicode="&#x431;" horiz-adv-x="1175" d="M145 602q0 117 5 201t19.5 168t40.5 142.5t67.5 110.5t102 88t142.5 60q55 17 142 32t159 37.5t146 67.5l41 -135q-74 -46 -141 -68t-155 -38t-134 -29q-75 -21 -129 -56.5t-85 -82.5t-47 -93.5t-24 -105.5q-14 -71 -19 -145h5q15 34 31 60.5t46.5 56.5t69 49t99 32 t135.5 13q219 0 308 -111t89 -371q0 -100 -12 -175t-43 -140t-82 -106.5t-131 -65t-189 -23.5q-70 0 -128 10t-102 27t-78.5 46t-58 59.5t-40.5 75.5t-26.5 86t-15 99t-7 107t-1.5 117zM326 485q0 -205 61.5 -283.5t216.5 -78.5q153 0 213 77.5t60 284.5q0 193 -55.5 263.5 t-205.5 70.5q-91 0 -149 -21t-88.5 -66.5t-41.5 -102.5t-11 -144z" />
<glyph unicode="&#x432;" horiz-adv-x="1134" d="M162 -2v997q163 13 405 13q236 0 328 -56t92 -211q0 -107 -51 -161.5t-164 -63.5v-6q135 -10 192.5 -75t57.5 -189q0 -150 -88.5 -205t-310.5 -55q-292 0 -461 12zM326 125q32 0 123.5 -1t148.5 -1q142 0 196 32.5t54 127.5t-57.5 131.5t-202.5 36.5h-262v-326zM326 575 h262q132 0 182.5 31.5t50.5 120.5q0 84 -56 113.5t-204 29.5q-141 3 -235 0v-295z" />
<glyph unicode="&#x433;" horiz-adv-x="946" d="M158 0v784q0 106 56.5 161.5t164.5 55.5q358 0 522 -16l-6 -123h-444q-63 0 -92 -29.5t-29 -93.5v-739h-172z" />
<glyph unicode="&#x434;" horiz-adv-x="1202" d="M59 139h115q126 256 150 629q15 229 254 229h409v-858h137v-434h-114l-15 295h-807l-16 -295h-113v434zM332 139h489v721h-215q-116 0 -125 -121q-26 -372 -149 -600z" />
<glyph unicode="&#x435;" horiz-adv-x="1105" d="M115 502q0 195 48.5 309t146 162.5t261.5 48.5q222 0 325 -81t105 -245q0 -282 -237 -282h-465q7 -89 27 -146t60 -89t92.5 -44t133.5 -12q174 0 349 24l16 -116q-64 -27 -176.5 -41.5t-210.5 -14.5q-257 0 -366 120t-109 407zM297 549h422q110 0 106 147q0 96 -55.5 137 t-189.5 41q-157 0 -218.5 -69t-64.5 -256z" />
<glyph unicode="&#x436;" horiz-adv-x="1615" d="M70 0q89 245 130 323q63 121 149 164q48 24 114 31v4q-58 7 -104 33t-75 51t-65.5 98t-52 112t-58.5 155q-7 17 -10 26h174q19 -48 29.5 -74.5t27 -67t27.5 -62t26.5 -52.5t28.5 -47.5t30 -37.5t33.5 -32t36 -21.5t41.5 -14.5t46 -4h145q-8 49 -8 116v297h154v-297 q0 -67 -8 -116h135q27 0 51.5 6.5t45 15.5t40 28.5t34.5 36t33 48.5t30 55.5t30 67t29.5 72.5t31.5 83h177q-80 -220 -120 -294q-64 -120 -156 -158q-39 -17 -89 -23v-4q53 -6 94 -21.5t75 -46.5t59.5 -67t53.5 -97.5t51 -122t57 -154.5l3 -9h-178q-92 230 -122 288 q-58 112 -127 145q-40 19 -95 20h-143q8 -70 8 -99v-354h-154v354q0 29 8 99h-153q-111 -1 -167.5 -81.5t-152.5 -317.5q-14 -35 -22 -54h-178z" />
<glyph unicode="&#x437;" horiz-adv-x="1015" d="M78 12l14 133q184 -16 371 -16q151 0 205.5 32t54.5 122q0 93 -56 127t-202 34h-238v129h238q134 0 181.5 31.5t47.5 120.5q0 86 -56 113.5t-218 27.5q-175 0 -297 -16l-12 133q127 31 307 31q130 0 210.5 -11t136.5 -41t78.5 -81t22.5 -133q0 -111 -47 -166.5 t-162 -65.5v-6q130 -10 188 -73.5t58 -190.5q0 -154 -96 -209t-332 -55q-234 0 -397 30z" />
<glyph unicode="&#x438;" horiz-adv-x="1202" d="M162 0v997h157v-661q0 -60 -6 -133h4q31 63 72 114l508 680h141v-997h-157v662q0 25 3 73t3 60h-4q-22 -54 -70 -117l-508 -678h-143z" />
<glyph unicode="&#x439;" horiz-adv-x="1202" d="M162 0v997h157v-661q0 -60 -6 -133h4q31 63 72 114l508 680h141v-997h-157v662q0 25 3 73t3 60h-4q-22 -54 -70 -117l-508 -678h-143zM285 1440h133q0 -89 45.5 -137t130.5 -48q82 0 127 48t45 137h133q8 -122 -76 -201.5t-229 -79.5q-147 0 -232 79.5t-77 201.5z" />
<glyph unicode="&#x43a;" horiz-adv-x="1097" d="M162 0v997h174v-297q0 -52 -10 -114h139q42 0 77 10t62 25t53 46t44 58t40.5 77.5t37.5 89t40 105.5h180q-84 -220 -124 -292q-66 -118 -157 -158q-44 -19 -100 -25v-6q66 -6 117 -31t85.5 -56.5t73 -106.5t62.5 -134.5t72 -187.5h-182q-88 225 -125 293 q-60 106 -137 138q-46 19 -109 20h-10h-137q8 -66 8 -97v-354h-174z" />
<glyph unicode="&#x43b;" horiz-adv-x="1150" d="M39 123q79 19 116 50t60 89q51 129 88 502q14 118 76 175.5t184 57.5h424v-997h-174v860h-217q-64 0 -92 -27.5t-37 -97.5q-1 -6 -9.5 -75.5t-11 -85.5t-10.5 -74t-13.5 -83.5t-14 -69.5t-17.5 -75.5t-20 -60.5q-75 -218 -314 -221z" />
<glyph unicode="&#x43c;" horiz-adv-x="1531" d="M141 0l41 932q0 31 18 48t50 17h180q53 0 68 -57l207 -573q23 -63 43 -144h32q25 91 43 144l207 573q18 57 70 57h182q31 0 48.5 -17t17.5 -48l43 -932h-162l-39 864h-35l-254 -698q-18 -57 -70 -57h-135q-51 0 -69 57l-254 698h-35l-37 -864h-160z" />
<glyph unicode="&#x43d;" horiz-adv-x="1191" d="M162 0v997h172v-401h524v401h172v-997h-172v463h-524v-463h-172z" />
<glyph unicode="&#x43e;" horiz-adv-x="1169" d="M115 498q0 286 106.5 405t364.5 119q256 0 362.5 -119t106.5 -405q0 -287 -106 -406t-363 -119q-258 0 -364.5 119t-106.5 406zM297 498q0 -217 62 -297t227 -80q164 0 225 80t61 297t-61 296.5t-225 79.5q-84 0 -137.5 -17.5t-88.5 -61.5t-49 -115t-14 -182z" />
<glyph unicode="&#x43f;" horiz-adv-x="1177" d="M162 0v997h854v-997h-172v856h-512v-856h-170z" />
<glyph unicode="&#x440;" horiz-adv-x="1193" d="M164 -412v1409h141l14 -159q83 86 194.5 135t219.5 49q181 0 262.5 -131t81.5 -397q0 -282 -90.5 -400.5t-286.5 -118.5q-199 0 -368 103q7 -85 4 -201v-289h-172zM336 188q110 -33 178 -47t141 -14q91 0 141.5 30.5t75.5 110.5t25 226q0 210 -49.5 293t-169.5 83 q-78 0 -156 -36t-186 -117v-529z" />
<glyph unicode="&#x441;" horiz-adv-x="1007" d="M115 500q0 288 107 405t366 117q197 0 321 -47l-22 -113q-135 12 -271 12q-121 0 -188.5 -33t-99 -113.5t-31.5 -227.5q0 -148 31.5 -229t99 -114.5t188.5 -33.5q168 0 295 20l17 -116q-146 -52 -340 -52q-260 0 -366.5 118t-106.5 407z" />
<glyph unicode="&#x442;" horiz-adv-x="1003" d="M53 854v143h897v-143h-360v-854h-174v854h-363z" />
<glyph unicode="&#x443;" horiz-adv-x="1089" d="M41 997h186l265 -743q23 -66 36 -121h29q35 103 41 121l262 743h187l-398 -1052q-81 -210 -188 -291q-130 -99 -371 -66l16 121q163 -8 240 45q83 59 139 203l19 43h-39q-48 0 -64 45z" />
<glyph unicode="&#x444;" horiz-adv-x="1472" d="M113 498q0 268 124.5 389t417.5 133v414h162v-414q294 -12 418.5 -133t124.5 -389q0 -267 -125 -388t-418 -133v-389h-162v389q-293 12 -417.5 133t-124.5 388zM281 498q0 -199 84.5 -281.5t296.5 -91.5v749q-213 -11 -297 -93.5t-84 -282.5zM811 125q211 9 295 91.5 t84 281.5t-84 282t-295 94v-749z" />
<glyph unicode="&#x445;" horiz-adv-x="1087" d="M49 0l334 514l-307 483h188l256 -411h47l258 411h189l-309 -483l333 -514h-190l-283 451h-41l-284 -451h-191z" />
<glyph unicode="&#x446;" horiz-adv-x="1216" d="M164 0v997h170v-858h495v858h172v-858h138v-434h-115l-18 295h-842z" />
<glyph unicode="&#x447;" horiz-adv-x="1089" d="M113 565v432h172v-374q0 -73 31 -103.5t104 -30.5q164 0 332 70v438h172v-997h-172v420q-99 -35 -205 -54.5t-185 -19.5q-249 0 -249 219z" />
<glyph unicode="&#x448;" horiz-adv-x="1650" d="M162 0v997h170v-858h413v858h158v-858h416v858h168v-997h-1325z" />
<glyph unicode="&#x449;" horiz-adv-x="1701" d="M164 0v997h168v-858h413v858h158v-858h418v858h168v-858h137v-434h-117l-16 295h-1329z" />
<glyph unicode="&#x44a;" horiz-adv-x="1294" d="M53 858v139h520v-387h232q229 0 315 -67.5t86 -243.5q0 -92 -21 -152t-68.5 -95t-115 -49.5t-170.5 -14.5q-271 0 -428 12v858h-350zM573 127l232 -2q128 0 175.5 36t47.5 144q0 100 -46.5 138t-176.5 38h-232v-354z" />
<glyph unicode="&#x44b;" horiz-adv-x="1476" d="M162 0v997h170v-387h235q222 0 305.5 -67.5t83.5 -243.5q0 -179 -81.5 -245t-280.5 -66q-269 0 -426 12h-6zM332 127l235 -2q122 0 167.5 36t45.5 144q0 100 -45 138t-168 38h-235v-354zM1139 0v997h176v-997h-176z" />
<glyph unicode="&#x44c;" horiz-adv-x="1056" d="M162 0v997h170v-387h235q229 0 315.5 -67.5t86.5 -243.5q0 -92 -20.5 -151.5t-68 -95.5t-115.5 -50t-171 -14q-269 0 -426 12h-6zM332 127l235 -2q127 0 175.5 36.5t48.5 143.5q0 100 -47 138t-177 38h-235v-354z" />
<glyph unicode="&#x44d;" horiz-adv-x="1036" d="M84 18l18 123q172 -14 332 -14q169 0 236.5 67t74.5 248h-507v131h505q-10 165 -79 228t-230 63q-144 0 -321 -10l-19 121q74 21 146 28t194 7q271 0 379.5 -114t108.5 -402q0 -284 -109 -399t-379 -115q-219 0 -350 38z" />
<glyph unicode="&#x44e;" horiz-adv-x="1628" d="M164 0v997h172v-415h256q6 128 32.5 211.5t81.5 135t134.5 72.5t199.5 21q134 0 221 -24.5t145 -85.5t82.5 -160t24.5 -252q0 -151 -24.5 -249t-82 -158.5t-145 -85.5t-221.5 -25q-163 0 -257 42.5t-140 143t-51 278.5h-256v-446h-172zM758 502q0 -214 59.5 -293.5 t220.5 -79.5q166 0 230 80t65 293q-1 214 -64.5 293t-230.5 79q-83 0 -135 -17.5t-85.5 -61.5t-46.5 -113.5t-13 -179.5z" />
<glyph unicode="&#x44f;" horiz-adv-x="1112" d="M82 0l90 299q19 59 73.5 89.5t121.5 37.5v8q-121 17 -174.5 86t-53.5 193q0 73 18 125t59.5 91.5t114.5 59t179 19.5q281 0 440 -15v-993h-170v369h-268q-146 0 -174 -103l-76 -266h-180zM309 688q0 -104 44 -146t167 -42h260v366q-31 0 -120.5 1t-145.5 1 q-121 0 -163 -40t-42 -140z" />
<glyph unicode="&#x451;" horiz-adv-x="1105" d="M115 502q0 195 48.5 309t146 162.5t261.5 48.5q222 0 325 -81t105 -245q0 -282 -237 -282h-465q7 -89 27 -146t60 -89t92.5 -44t133.5 -12q174 0 349 24l16 -116q-64 -27 -176.5 -41.5t-210.5 -14.5q-257 0 -366 120t-109 407zM297 549h422q110 0 106 147q0 96 -55.5 137 t-189.5 41q-157 0 -218.5 -69t-64.5 -256zM317 1251v113q0 49 48 49h59q47 0 47 -49v-113q0 -49 -47 -49h-59q-48 0 -48 49zM680 1251v113q0 49 49 49h57q23 0 36.5 -13t13.5 -36v-113q0 -49 -50 -49h-57q-49 0 -49 49z" />
<glyph unicode="&#x452;" horiz-adv-x="1198" d="M55 1012v100h154v322h176v-322h381v-100h-381v-172q0 -91 -10 -176q229 159 438 159q135 0 203.5 -69.5t68.5 -204.5v-549h-174v502q0 91 -39.5 128.5t-134.5 37.5q-79 0 -158.5 -31t-195.5 -102v-535h-174v1012h-154z" />
<glyph unicode="&#x453;" horiz-adv-x="946" d="M158 0v784q0 106 56.5 161.5t164.5 55.5q358 0 522 -16l-6 -123h-444q-63 0 -92 -29.5t-29 -93.5v-739h-172zM414 1202l352 301l100 -133l-393 -248z" />
<glyph unicode="&#x454;" horiz-adv-x="1038" d="M115 494q0 288 109 402t380 114q122 0 194 -7t144 -28l-16 -121q-177 10 -322 10q-161 0 -230 -63t-79 -228h508v-131h-510q7 -181 75 -248t236 -67q160 0 332 14l16 -123q-128 -38 -348 -38q-270 0 -379.5 115t-109.5 399z" />
<glyph unicode="&#x455;" horiz-adv-x="1046" d="M106 748q0 86 21.5 140.5t72.5 84.5t119.5 40.5t176.5 8.5q229 -4 417 -31l-12 -127q-317 10 -381 10h-82t-63.5 -4t-46.5 -11.5t-31 -22t-17.5 -35.5t-5.5 -53q0 -38 8 -62.5t30 -40t44 -23.5t64 -18l291 -65q123 -30 177 -90.5t54 -184.5q0 -73 -17 -124t-48 -83 t-86 -49.5t-118 -24t-157 -6.5q-209 0 -389 29l12 127q171 -11 342 -8q173 0 233 26t60 113q0 36 -10 59.5t-34 38.5t-46.5 22.5t-65.5 18.5l-286 66q-122 29 -174 93t-52 186z" />
<glyph unicode="&#x456;" horiz-adv-x="514" d="M164 1251v117q0 53 53 53h82q51 0 51 -53v-117q0 -53 -51 -53h-82q-53 0 -53 53zM170 0v997h174v-997h-174z" />
<glyph unicode="&#x457;" horiz-adv-x="514" d="M-2 1251v113q0 49 47 49h59q48 0 48 -49v-113q0 -49 -48 -49h-59q-47 0 -47 49zM170 0v997h174v-997h-174zM360 1251v113q0 49 50 49h57q49 0 49 -49v-113q0 -49 -49 -49h-57q-50 0 -50 49z" />
<glyph unicode="&#x458;" horiz-adv-x="516" d="M57 -340q59 73 86 146.5t27 168.5v1022h176v-1022q0 -119 -51 -221.5t-141 -169.5zM166 1251v117q0 53 51 53h82q53 0 53 -53v-117q0 -53 -53 -53h-82q-51 0 -51 53z" />
<glyph unicode="&#x459;" horiz-adv-x="1644" d="M57 113q29 12 44.5 19.5t39.5 22.5t43 37t35 52q44 83 61.5 181t47.5 372q9 98 67 149t162 51h381v-381h223q152 0 236.5 -30t120.5 -97t36 -188q0 -96 -21 -157t-70 -95.5t-116.5 -47.5t-172.5 -13q-250 0 -402 12v864h-168q-58 0 -84.5 -22t-32.5 -76 q-27 -247 -47.5 -359.5t-60.5 -205.5q-41 -104 -123 -155.5t-184 -51.5zM938 127l209 -2q134 0 182.5 34.5t48.5 147.5q0 103 -45.5 142.5t-171.5 39.5h-223v-362z" />
<glyph unicode="&#x45a;" horiz-adv-x="1658" d="M164 0v997h160v-385h462v385h164v-383h228q225 0 309 -67.5t84 -245.5q0 -180 -83 -246.5t-284 -66.5q-263 0 -418 12v487h-462v-487h-160zM950 127l228 -2q124 0 170.5 36.5t46.5 145.5q0 102 -45.5 141t-171.5 39h-228v-360z" />
<glyph unicode="&#x45b;" horiz-adv-x="1198" d="M55 1012v100h154v322h176v-322h381v-100h-381v-172q0 -91 -10 -176q229 159 438 159q269 0 272 -274v-574q0 -119 -51 -221.5t-141 -169.5l-96 76q60 74 87 147t27 168v527q0 90 -39.5 128t-134.5 38q-79 0 -158.5 -31t-195.5 -102v-535h-174v1012h-154z" />
<glyph unicode="&#x45c;" horiz-adv-x="1097" d="M162 0v997h174v-297q0 -52 -10 -114h139q42 0 77 10t62 25t53 46t44 58t40.5 77.5t37.5 89t40 105.5h180q-84 -220 -124 -292q-66 -118 -157 -158q-44 -19 -100 -25v-6q66 -6 117 -31t85.5 -56.5t73 -106.5t62.5 -134.5t72 -187.5h-182q-88 225 -125 293 q-60 106 -137 138q-46 19 -109 20h-10h-137q8 -66 8 -97v-354h-174zM438 1202l353 301l100 -133l-393 -248z" />
<glyph unicode="&#x45d;" horiz-adv-x="1202" d="M162 0v997h157v-661q0 -60 -6 -133h4q31 63 72 114l508 680h141v-997h-157v662q0 25 3 73t3 60h-4q-22 -54 -70 -117l-508 -678h-143zM242 1370l100 133l352 -301l-59 -80z" />
<glyph unicode="&#x45e;" horiz-adv-x="1089" d="M41 997h186l265 -743q23 -66 36 -121h29q35 103 41 121l262 743h187l-398 -1052q-81 -210 -188 -291q-130 -99 -371 -66l16 121q163 -8 240 45q83 59 139 203l19 43h-39q-48 0 -64 45zM236 1440h133q0 -89 45.5 -137t130.5 -48q82 0 127 48t45 137h133q8 -122 -76 -201.5 t-229 -79.5q-147 0 -232 79.5t-77 201.5z" />
<glyph unicode="&#x45f;" horiz-adv-x="1187" d="M164 0v997h174v-858h512v858h174v-997h-358l-15 -338h-116l-17 338h-354z" />
<glyph unicode="&#x490;" horiz-adv-x="1071" d="M174 0v1149q0 118 72.5 192t185.5 74q309 0 459 -12l20 321h117v-338l-8 -124h-528q-73 0 -106.5 -34.5t-33.5 -111.5v-1116h-178z" />
<glyph unicode="&#x491;" horiz-adv-x="950" d="M158 0v784q0 106 56.5 161.5t164.5 55.5q264 0 391 -6l18 301h117v-311l-8 -123h-446q-61 1 -90 -28.5t-29 -94.5v-739h-174z" />
<glyph unicode="&#x4b0;" horiz-adv-x="1187" d="M37 1413h190l297 -596q16 -33 66 -160h14q37 106 64 158l297 598h188l-432 -850h270v-106h-305v-457h-180v457h-307v106h272z" />
<glyph unicode="&#x4b1;" horiz-adv-x="1196" d="M39 997h190l297 -591q21 -42 64 -158h16q43 116 64 158l297 591h190l-434 -845h272v-111h-307v-453h-178v453h-309v111h274z" />
<glyph unicode="&#x4b6;" horiz-adv-x="1337" d="M123 834v579h182v-543q-3 -104 45.5 -151t157.5 -47t202 24t214 84v633h182v-1288h166v-434h-123l-19 309h-206v637q-119 -62 -244 -92.5t-231 -30.5q-166 0 -246 78.5t-80 241.5z" />
<glyph unicode="&#x4b7;" horiz-adv-x="1138" d="M113 565v432h172v-374q0 -73 31 -103.5t104 -30.5q164 0 332 70v438h172v-858h139v-434h-117l-16 295h-178v420q-99 -35 -205 -54.5t-185 -19.5q-249 0 -249 219z" />
<glyph unicode="&#x4ba;" horiz-adv-x="1282" d="M178 0v1413h180v-635q115 60 244 90.5t234 30.5q164 0 243.5 -78t79.5 -241v-580h-180v543q2 104 -46.5 151t-158.5 47q-106 0 -203 -24.5t-213 -83.5v-633h-180z" />
<glyph unicode="&#x4c0;" horiz-adv-x="538" d="M180 0v1413h178v-1413h-178z" />
<glyph unicode="&#x2000;" horiz-adv-x="936" />
<glyph unicode="&#x2001;" horiz-adv-x="1872" />
<glyph unicode="&#x2002;" horiz-adv-x="936" />
<glyph unicode="&#x2003;" horiz-adv-x="1872" />
<glyph unicode="&#x2004;" horiz-adv-x="624" />
<glyph unicode="&#x2005;" horiz-adv-x="468" />
<glyph unicode="&#x2006;" horiz-adv-x="312" />
<glyph unicode="&#x2007;" horiz-adv-x="312" />
<glyph unicode="&#x2008;" horiz-adv-x="234" />
<glyph unicode="&#x2009;" horiz-adv-x="374" />
<glyph unicode="&#x200a;" horiz-adv-x="104" />
<glyph unicode="&#x2010;" horiz-adv-x="919" d="M147 451v133h625v-133h-625z" />
<glyph unicode="&#x2011;" horiz-adv-x="919" d="M147 451v133h625v-133h-625z" />
<glyph unicode="&#x2012;" horiz-adv-x="919" d="M147 451v133h625v-133h-625z" />
<glyph unicode="&#x2013;" horiz-adv-x="1212" d="M147 451v133h918v-133h-918z" />
<glyph unicode="&#x2014;" horiz-adv-x="1835" d="M147 451v133h1541v-133h-1541z" />
<glyph unicode="&#x2018;" horiz-adv-x="444" d="M133 1077v123q3 157 72 295l82 -22q-21 -117 -21 -230q23 0 35.5 -14t11.5 -39v-113q-1 -34 -16 -47.5t-49 -13.5h-51q-35 0 -49.5 13.5t-14.5 47.5z" />
<glyph unicode="&#x2019;" horiz-adv-x="438" d="M129 1307v112q1 34 16.5 48t49.5 14h51q35 0 49 -14t14 -48v-123q-3 -159 -71 -292l-82 20q20 111 20 229q-23 0 -36 14.5t-11 39.5z" />
<glyph unicode="&#x201a;" horiz-adv-x="466" d="M143 53v113q1 34 17 47.5t51 13.5h51q35 0 49.5 -13.5t14.5 -47.5v-121q-3 -157 -72 -295l-84 23q20 111 20 229q-23 0 -36 14t-11 37z" />
<glyph unicode="&#x201c;" horiz-adv-x="755" d="M133 1077v123q3 157 72 295l82 -22q-21 -117 -21 -230q23 0 35.5 -14t11.5 -39v-113q-1 -34 -16 -47.5t-49 -13.5h-51q-35 0 -49.5 13.5t-14.5 47.5zM446 1077v123q3 161 70 295l84 -22q-20 -111 -20 -230q23 0 35.5 -14t11.5 -39v-113q-1 -34 -17 -47.5t-51 -13.5h-49 q-35 0 -49.5 13.5t-14.5 47.5z" />
<glyph unicode="&#x201d;" horiz-adv-x="751" d="M129 1307v112q1 34 16.5 48t49.5 14h51q35 0 49 -14t14 -48v-123q-3 -159 -71 -292l-82 20q20 111 20 229q-23 0 -36 14.5t-11 39.5zM440 1307v112q1 34 17 48t51 14h51q35 0 48.5 -14t13.5 -48v-123q-3 -161 -70 -292l-82 20q20 130 20 229q-23 0 -36 14.5t-13 39.5z " />
<glyph unicode="&#x201e;" horiz-adv-x="780" d="M143 53v113q1 33 16.5 47t49.5 14h51q35 0 49.5 -13.5t14.5 -47.5v-121q-3 -157 -72 -295l-82 23q20 111 20 229q-23 0 -36 14t-11 37zM455 53v113q3 34 18 47.5t49 13.5h51q35 0 48.5 -13.5t13.5 -47.5v-121q-3 -161 -70 -295l-82 23q21 117 21 229q-23 0 -36 14t-13 37 z" />
<glyph unicode="&#x2022;" horiz-adv-x="743" d="M186 539v24q0 96 38.5 133t137.5 37h25q95 0 132.5 -37.5t37.5 -132.5v-24q0 -100 -37.5 -138.5t-132.5 -38.5h-25q-100 0 -138 38.5t-38 138.5z" />
<glyph unicode="&#x2026;" horiz-adv-x="1730" d="M135 66v110q0 37 14.5 51.5t49.5 14.5h59q35 0 49.5 -14.5t14.5 -51.5v-110q0 -37 -14.5 -51.5t-49.5 -14.5h-59q-35 0 -49.5 14.5t-14.5 51.5zM766 66v110q0 37 14 51.5t51 14.5h58q35 0 49 -14.5t14 -51.5v-110q0 -37 -14 -51.5t-49 -14.5h-58q-37 0 -51 14.5t-14 51.5 zM1397 66v110q0 37 14 51.5t51 14.5h58q36 0 50.5 -15t14.5 -51v-110q0 -36 -14.5 -51t-50.5 -15h-58q-37 0 -51 14.5t-14 51.5z" />
<glyph unicode="&#x202f;" horiz-adv-x="374" />
<glyph unicode="&#x2039;" horiz-adv-x="583" d="M74 494v41l327 405l93 -61l-258 -365l260 -373l-93 -61z" />
<glyph unicode="&#x203a;" horiz-adv-x="587" d="M88 141l260 373l-258 365l90 61l330 -405v-41l-332 -414z" />
<glyph unicode="&#x205f;" horiz-adv-x="468" />
<glyph unicode="&#x20ac;" horiz-adv-x="1308" d="M109 535v108h167v64q0 49 3 96h-170v108h178q30 267 161 397t392 130q194 0 340 -41l-21 -140q-161 27 -330 19q-159 -6 -243 -94.5t-111 -270.5h522l-14 -108h-518q0 -17 -1 -49t-1 -49l2 -62h450l-14 -108h-430q22 -200 106.5 -297t251.5 -101q193 -6 355 25l18 -139 q-159 -48 -362 -48q-269 0 -399.5 137.5t-157.5 422.5h-174z" />
<glyph unicode="&#x2122;" horiz-adv-x="1974" d="M137 1321v104h664v-104h-269v-674h-126v674h-269zM901 647l33 729q3 49 49 49h129q39 0 51 -41l156 -450q5 -16 10.5 -34.5t11.5 -40.5t9 -34h22q6 18 16.5 55t16.5 56l154 448q12 41 49 41h135q46 0 49 -49l31 -729h-117l-33 682h-22l-189 -549q-12 -41 -53 -41h-96 q-38 0 -51 41l-189 549h-24l-31 -682h-117z" />
<glyph unicode="&#x25fc;" horiz-adv-x="993" d="M0 0v993h993v-993h-993z" />
</font>
</defs>
</svg>
